<svg width="50" height="50" viewBox="0 0 50 50" fill="none" xmlns="http://www.w3.org/2000/svg">
<path d="M10.4165 27.0586C10.4165 26.0495 10.4165 25.545 10.6382 25.1142C10.8598 24.6835 11.2704 24.3902 12.0916 23.8037L23.8374 15.4138C24.3987 15.0129 24.6794 14.8124 24.9998 14.8124C25.3203 14.8124 25.601 15.0129 26.1623 15.4138L37.9081 23.8037C38.7293 24.3902 39.1398 24.6835 39.3615 25.1142C39.5832 25.545 39.5832 26.0495 39.5832 27.0586V41.7502C39.5832 42.693 39.5832 43.1644 39.2903 43.4573C38.9974 43.7502 38.526 43.7502 37.5832 43.7502H12.4165C11.4737 43.7502 11.0023 43.7502 10.7094 43.4573C10.4165 43.1644 10.4165 42.693 10.4165 41.7502V27.0586Z" fill="#7E869E" fill-opacity="0.25"/>
<path d="M6.25 26.4701C6.25 26.737 6.25 26.8704 6.3341 26.9115C6.41819 26.9527 6.52352 26.8708 6.73418 26.7069L23.7721 13.4552C24.362 12.9964 24.6569 12.767 25 12.767C25.3431 12.767 25.638 12.9964 26.2279 13.4552L43.2658 26.7069C43.4765 26.8708 43.5818 26.9527 43.6659 26.9115C43.75 26.8704 43.75 26.737 43.75 26.4701V23.895C43.75 23.4146 43.75 23.1745 43.6483 22.9666C43.5466 22.7587 43.357 22.6112 42.9779 22.3163L26.2279 9.28851C25.638 8.82974 25.3431 8.60036 25 8.60036C24.6569 8.60036 24.362 8.82974 23.7721 9.28851L7.02212 22.3163C6.64295 22.6112 6.45337 22.7587 6.35168 22.9666C6.25 23.1745 6.25 23.4146 6.25 23.895V26.4701Z" fill="#222222"/>
<path d="M28.2082 31.25H21.7915C20.6869 31.25 19.7915 32.1454 19.7915 33.25V43.6C19.7915 43.6828 19.8587 43.75 19.9415 43.75H30.0582C30.141 43.75 30.2082 43.6828 30.2082 43.6V33.25C30.2082 32.1454 29.3127 31.25 28.2082 31.25Z" fill="#222222"/>
<rect x="33.3335" y="10.4165" width="4.16667" height="8.33333" rx="0.5" fill="#222222"/>
</svg>
