<svg width="20" height="29" viewBox="0 0 20 29" fill="none" xmlns="http://www.w3.org/2000/svg">
<path fill-rule="evenodd" clip-rule="evenodd" d="M5.04521 1.33825C8.16645 -0.475325 12.003 -0.443627 15.0949 1.42129C18.1565 3.32418 20.0172 6.72029 19.9999 10.3736C19.9286 14.0028 17.9334 17.4144 15.4393 20.0517C13.9998 21.5807 12.3895 22.9327 10.6413 24.0802C10.4612 24.1843 10.264 24.254 10.0593 24.2859C9.86234 24.2775 9.67051 24.2193 9.50113 24.1165C6.83208 22.3924 4.49051 20.1916 2.58906 17.62C0.99799 15.4735 0.0940515 12.8801 1.65963e-06 10.1921C-0.00206383 6.53182 1.92396 3.15183 5.04521 1.33825ZM6.84935 11.7072C7.37439 13.0015 8.61367 13.8458 9.98857 13.8458C10.8893 13.8523 11.7551 13.4915 12.3932 12.8439C13.0312 12.1962 13.3884 11.3155 13.3852 10.398C13.39 8.99751 12.5655 7.73219 11.2967 7.19284C10.0278 6.65349 8.56491 6.94652 7.591 7.93509C6.6171 8.92367 6.32432 10.4128 6.84935 11.7072Z" fill="#FF3535"/>
<ellipse opacity="0.4" cx="9.99983" cy="27.1424" rx="7.1429" ry="1.42858" fill="#FF3535"/>
</svg>
