<svg width="30" height="30" viewBox="0 0 30 30" fill="none" xmlns="http://www.w3.org/2000/svg">
<path d="M12.8356 9.02471C13.631 7.02385 14.0286 6.02342 14.6747 5.88477C14.8446 5.84831 15.0202 5.84831 15.1901 5.88477C15.8362 6.02342 16.2339 7.02385 17.0292 9.02471C17.4816 10.1626 17.7077 10.7315 18.1309 11.1184C18.2496 11.227 18.3784 11.3236 18.5156 11.4071C19.0047 11.7046 19.6153 11.7597 20.8364 11.8701C22.9036 12.0569 23.9371 12.1503 24.2528 12.745C24.3181 12.8681 24.3626 13.0015 24.3843 13.1395C24.4889 13.8058 23.7291 14.5034 22.2094 15.8985L21.7874 16.2859C21.0769 16.9382 20.7217 17.2643 20.5162 17.6713C20.3929 17.9155 20.3103 18.1784 20.2716 18.4496C20.207 18.9017 20.311 19.3748 20.5191 20.3211L20.5934 20.6591C20.9665 22.356 21.1531 23.2045 20.9202 23.6216C20.711 23.9962 20.3257 24.236 19.9001 24.2565C19.4263 24.2793 18.7586 23.7303 17.4233 22.6324C16.5435 21.909 16.1036 21.5473 15.6153 21.406C15.169 21.2768 14.6958 21.2768 14.2496 21.406C13.7612 21.5473 13.3213 21.909 12.4416 22.6324C11.1063 23.7303 10.4386 24.2793 9.96475 24.2565C9.53912 24.236 9.15381 23.9962 8.94463 23.6216C8.71176 23.2045 8.89831 22.3561 9.27141 20.6591L9.34575 20.3211C9.5538 19.3748 9.65782 18.9017 9.59327 18.4496C9.55454 18.1784 9.4719 17.9155 9.34864 17.6713C9.14317 17.2643 8.78794 16.9382 8.07746 16.2859L7.65546 15.8985C6.13579 14.5034 5.37595 13.8058 5.48059 13.1395C5.50226 13.0015 5.54671 12.8681 5.61208 12.745C5.92771 12.1503 6.96129 12.0569 9.02845 11.8701C10.2496 11.7597 10.8601 11.7046 11.3492 11.4071C11.4864 11.3236 11.6153 11.227 11.734 11.1184C12.1571 10.7315 12.3833 10.1626 12.8356 9.02471Z" fill="#ADFF00" stroke="#006F93" stroke-width="0.5"/>
</svg>
